<?xml version="1.0" standalone="no"?>
<!DOCTYPE svg PUBLIC "-//W3C//DTD SVG 20010904//EN"
 "http://www.w3.org/TR/2001/REC-SVG-20010904/DTD/svg10.dtd">
<svg version="1.0" xmlns="http://www.w3.org/2000/svg"
 width="720.000000pt" height="1280.000000pt" viewBox="0 0 720.000000 1280.000000"
 preserveAspectRatio="xMidYMid meet">
<metadata>
Created by potrace 1.16, written by Peter Selinger 2001-2019
</metadata>
<g transform="translate(0.000000,1280.000000) scale(0.100000,-0.100000)"
fill="#000000" stroke="none">
<path d="M0 12340 c0 -404 2 -459 15 -454 11 5 15 -1 16 -22 4 -89 -5 -144
-22 -144 -6 0 -9 -364 -9 -890 1 -735 3 -890 14 -890 13 0 26 -29 26 -57 0 -6
-9 -15 -20 -18 -20 -6 -20 -14 -20 -2058 1 -1936 2 -2053 18 -2073 10 -11 24
-23 32 -26 11 -3 4 -11 -20 -26 -30 -19 -32 -22 -13 -22 12 0 25 5 28 10 3 6
14 10 23 10 9 0 30 14 46 30 16 17 35 30 43 30 7 0 13 5 13 10 0 6 6 10 14 10
7 0 27 7 42 15 43 22 57 20 50 -10 -4 -15 -2 -25 5 -25 21 0 40 -30 42 -67 2
-35 0 -38 -26 -41 -16 -2 -35 2 -43 9 -12 10 -18 8 -30 -9 -16 -24 -68 -52
-96 -52 -19 0 -65 -40 -60 -53 1 -4 -14 -5 -33 -1 l-35 6 1 -488 c0 -269 3
-483 6 -476 2 6 9 10 14 6 14 -8 11 -24 -6 -24 -13 0 -15 -259 -15 -2275 l0
-2275 226 0 225 0 -5 42 c-3 24 -10 93 -16 153 -6 61 -13 117 -16 126 -4 14
23 17 243 22 224 6 321 14 578 47 127 16 390 73 570 124 114 32 346 113 354
123 3 4 13 9 21 11 8 2 28 10 45 18 128 63 220 95 278 96 15 1 27 6 27 12 0 6
11 16 25 22 19 9 30 8 51 -3 24 -12 29 -12 36 2 5 8 16 15 24 15 9 0 12 -5 8
-12 -11 -17 -13 -108 -3 -108 10 0 6 -50 -4 -67 -4 -6 -1 -13 5 -16 7 -2 10
-7 6 -11 -3 -4 -16 -3 -27 4 -24 12 -28 -1 -7 -19 12 -11 7 -25 -36 -94 -28
-45 -59 -93 -68 -107 -26 -38 -58 -107 -65 -140 -4 -17 -12 -30 -18 -30 -7 0
-28 -30 -47 -67 -19 -38 -42 -80 -52 -95 -29 -43 -24 -48 52 -48 40 0 70 4 70
10 0 6 6 10 13 10 11 0 42 43 59 83 4 9 12 17 18 17 5 0 10 7 10 15 0 8 11 31
25 51 14 20 25 45 25 54 0 11 10 20 25 24 20 5 24 11 20 29 -5 17 0 26 18 36
18 9 23 19 20 35 -4 17 -3 18 6 6 8 -12 12 -9 17 18 6 30 8 32 24 17 17 -15
17 -13 14 36 -3 38 -1 50 7 42 6 -6 13 -32 14 -58 2 -26 7 -50 11 -53 4 -4 4
5 0 19 -4 19 -1 29 9 33 8 3 15 12 15 21 0 16 30 21 45 6 6 -5 24 -11 40 -13
22 -2 30 -8 30 -23 0 -11 -6 -21 -12 -21 -7 -1 -17 -2 -22 -3 -6 0 -3 -21 6
-46 17 -51 25 -59 17 -17 -7 36 27 98 52 94 11 -1 40 -3 65 -3 44 1 46 -1 44
-27 -1 -15 -3 -43 -3 -62 -2 -32 -3 -33 -19 -17 -13 13 -14 20 -5 29 7 7 12
25 12 40 0 23 -4 27 -22 24 -13 -3 -26 -5 -30 -5 -11 -1 -10 -29 0 -33 5 -1
12 -19 15 -38 4 -19 3 -29 -1 -22 -7 10 -14 10 -38 -3 -25 -13 -26 -20 -2 -16
4 0 6 -29 5 -66 -2 -65 -1 -67 23 -68 14 0 31 -4 39 -9 10 -6 16 -5 19 2 2 7
10 12 18 12 11 0 13 -7 8 -27 -9 -38 -8 -37 -45 -19 -37 18 -45 15 -30 -11 6
-10 11 -14 11 -9 0 5 7 2 16 -5 15 -12 14 -14 -7 -19 -13 -3 -25 -14 -27 -24
-3 -16 1 -18 30 -12 44 8 98 -3 98 -20 0 -9 12 -13 35 -12 28 1 33 4 23 15 -6
7 -8 16 -4 20 3 4 13 -3 22 -15 8 -12 22 -22 30 -22 15 0 18 11 7 26 -5 5 -1
1 9 -8 15 -17 104 -18 1758 -18 1158 0 1739 3 1735 10 -3 5 -1 10 4 10 6 0 11
-4 11 -10 0 -6 75 -10 205 -10 l205 0 -1 1478 -1 1477 -20 -64 c-29 -95 -34
-66 -5 36 24 84 26 153 6 153 -5 0 -9 18 -9 40 0 23 5 40 11 40 7 0 9 -11 5
-30 -3 -19 -2 -29 4 -25 7 4 10 1417 10 4082 l0 4075 -27 -4 c-16 -3 -32 -6
-38 -8 -24 -6 -66 1 -60 10 3 6 0 13 -8 16 -14 5 -13 38 0 74 3 8 8 26 10 40
9 68 12 72 43 65 19 -4 30 -3 30 5 0 7 6 8 19 0 11 -5 22 -10 25 -10 3 0 6
304 6 675 l0 675 -3600 0 -3600 0 0 -460z m6946 319 c4 -8 9 -8 17 0 15 15 27
14 27 -3 0 -7 12 -22 27 -31 l27 -18 -22 -15 c-12 -8 -22 -20 -22 -27 0 -7 -9
-15 -20 -18 -24 -6 -27 -42 -4 -55 14 -8 13 -10 -5 -15 -14 -3 -24 0 -28 9 -7
20 -20 17 -26 -6 -3 -12 -14 -20 -26 -20 -12 0 -21 -5 -21 -11 0 -5 5 -7 10
-4 6 3 10 4 10 1 0 -11 -82 -45 -95 -39 -12 4 -12 7 0 19 7 8 21 14 29 14 12
0 14 7 10 28 -4 19 0 34 11 45 9 9 13 21 10 27 -3 5 0 10 7 10 7 1 -7 10 -31
21 l-45 21 25 19 c28 21 35 23 44 9 3 -5 1 -10 -5 -10 -6 0 -8 -4 -5 -10 4 -6
12 -6 23 -1 9 5 25 12 35 15 10 3 17 15 17 31 0 26 14 33 26 14z m-1800 -295
c23 -6 24 -8 9 -24 -19 -21 -5 -70 20 -70 8 0 15 -4 15 -10 0 -5 8 -7 18 -4
14 5 14 3 -2 -10 -11 -9 -23 -16 -28 -16 -4 0 -8 -7 -8 -15 0 -14 -6 -16 -42
-18 -52 -2 -97 59 -79 106 18 47 43 78 58 72 8 -3 26 -8 39 -11z m1734 -234
c0 -5 3 -9 8 -9 4 1 21 -4 39 -10 35 -14 44 -34 30 -71 -5 -14 -10 -33 -13
-44 -10 -51 -50 -55 -90 -10 -12 13 -29 24 -38 24 -13 0 -16 5 -10 22 6 21 6
21 -10 5 -10 -9 -23 -14 -29 -10 -8 5 -6 9 6 11 9 2 17 10 17 17 0 9 6 12 16
8 11 -4 15 -1 12 13 -2 11 2 18 10 17 6 -2 12 3 12 10 0 14 20 37 32 37 4 0 8
-4 8 -10z m-4298 -186 c-4 -32 0 -41 35 -73 21 -21 44 -36 51 -33 15 5 15 -12
1 -60 -5 -21 -14 -38 -20 -38 -6 0 -8 -4 -5 -9 3 -5 -3 -11 -13 -14 -13 -3
-18 -1 -14 8 3 8 -4 15 -19 17 -18 2 -22 8 -20 28 3 25 2 25 -14 5 -15 -19
-16 -18 -9 25 4 25 8 49 9 55 0 5 -14 16 -31 24 -28 12 -32 18 -27 40 7 30 39
61 63 61 14 0 16 -7 13 -36z m-834 -32 c6 -9 12 -12 12 -7 0 5 7 0 15 -11 18
-26 27 -72 15 -79 -5 -3 -7 -18 -6 -33 2 -19 -5 -36 -26 -57 -19 -19 -25 -31
-16 -34 40 -13 65 -95 33 -107 -8 -4 -15 -13 -15 -21 0 -11 -6 -13 -22 -8 -13
4 -31 7 -40 8 -19 1 -26 17 -8 17 15 0 6 37 -15 60 -11 12 -25 18 -35 15 -11
-3 -20 1 -24 10 -3 8 -15 15 -26 15 -12 0 -20 7 -20 16 0 9 -13 21 -30 27 -45
17 -36 24 25 19 44 -3 56 -1 61 12 3 9 10 13 15 10 5 -3 9 2 9 10 0 9 7 16 15
16 8 0 15 6 15 14 0 8 7 16 16 18 13 2 12 9 -9 40 -34 49 -27 79 17 71 17 -3
37 -13 44 -21z m3452 -83 c30 -16 40 -27 40 -45 0 -18 7 -25 28 -30 15 -4 39
-16 54 -26 16 -11 32 -17 37 -13 5 3 13 -4 16 -16 4 -11 13 -18 20 -15 7 2 16
-2 19 -11 4 -9 13 -13 22 -9 11 4 18 -1 21 -14 3 -11 9 -20 14 -20 5 0 9 -7 9
-15 0 -8 -4 -15 -8 -15 -5 0 -17 -7 -28 -16 -18 -14 -18 -15 4 -4 12 6 22 9
23 8 0 -2 2 -13 3 -25 2 -21 -2 -23 -41 -23 -26 0 -51 6 -59 15 -9 8 -24 15
-33 15 -10 0 -24 7 -31 15 -7 8 -21 15 -32 15 -16 0 -17 -3 -8 -21 14 -26 14
-27 -38 -35 -41 -6 -42 -6 -48 24 -4 17 -14 33 -23 35 -9 2 4 2 29 0 l45 -4
-40 19 c-30 15 -36 21 -24 26 11 5 14 15 11 32 -4 21 -9 24 -31 19 -34 -7 -81
32 -81 69 0 31 45 86 71 86 10 0 37 -9 59 -21z m469 -368 c22 -30 28 -76 12
-85 -5 -3 -7 -15 -4 -26 3 -12 0 -20 -6 -20 -7 0 -9 -4 -6 -10 11 -18 14 -50
4 -50 -6 0 -6 -7 0 -19 9 -17 8 -18 -12 -14 -22 5 -22 5 -2 -11 19 -16 19 -16
-10 -11 -25 5 -27 4 -9 -4 26 -12 37 -27 29 -41 -4 -6 -16 -4 -31 6 -28 19
-31 9 -7 -20 10 -12 11 -16 4 -9 -7 6 -20 9 -28 6 -12 -5 -14 -1 -8 17 4 14 3
20 -3 16 -5 -3 -15 1 -22 9 -10 12 -9 15 6 15 16 0 17 2 4 10 -8 5 -22 7 -32
4 -9 -2 -19 0 -23 6 -3 5 -1 10 5 10 6 0 8 5 4 11 -11 19 -24 -13 -13 -33 6
-11 6 -18 0 -18 -5 0 -12 6 -14 13 -3 7 -6 4 -6 -6 -2 -31 -26 -12 -26 19 1
22 5 28 18 26 20 -3 23 14 5 21 -7 3 1 6 17 6 23 1 27 4 15 11 -13 8 -12 10 3
10 13 0 17 5 13 18 -3 9 -1 24 4 32 5 9 5 19 -1 27 -13 15 -3 33 16 33 8 0 12
6 9 13 -3 8 2 14 11 15 8 1 22 3 30 4 9 1 15 11 15 25 0 31 14 29 39 -6z
m-4172 -81 c3 -16 9 -30 14 -30 5 0 9 -7 9 -15 0 -8 -4 -15 -9 -15 -5 0 -14 7
-21 15 -15 18 -33 20 -28 3 5 -15 -9 -31 -35 -41 -10 -4 -15 -11 -12 -17 4 -6
-5 -10 -19 -10 -20 0 -29 8 -40 34 -8 18 -24 41 -37 50 l-23 16 22 0 c13 0 21
4 18 9 -7 11 59 24 84 16 11 -3 28 -2 37 4 28 16 33 13 40 -19z m4530 17 c9 4
16 -2 20 -15 3 -13 10 -19 19 -15 8 3 14 1 14 -4 0 -6 20 -10 45 -11 25 0 43
4 40 8 -3 5 2 7 11 6 20 -3 38 -32 30 -51 -3 -8 -1 -17 4 -20 6 -4 10 1 10 9
0 9 5 16 10 16 16 0 12 -15 -11 -41 -12 -13 -28 -34 -36 -46 -11 -17 -22 -22
-40 -19 -18 4 -22 2 -15 -7 15 -18 -4 -61 -24 -53 -9 3 -19 6 -24 6 -8 0 -23
38 -21 53 1 4 -3 7 -9 7 -5 0 -10 7 -10 15 0 9 -9 15 -22 15 -17 0 -19 -3 -10
-12 19 -19 14 -35 -21 -62 -22 -17 -40 -23 -55 -19 -32 8 -27 24 6 18 l27 -6
-27 16 c-32 18 -35 30 -10 44 13 8 14 10 2 11 -9 0 -16 10 -16 25 -2 21 2 25
27 25 21 0 29 -5 30 -17 0 -11 3 -13 6 -6 3 10 10 10 24 2 11 -6 28 -8 37 -6
14 4 13 6 -5 12 -13 4 -23 15 -23 24 0 9 -4 21 -9 27 -10 9 -14 35 -12 69 1
14 4 16 12 8 6 -6 18 -9 26 -6z m-1856 -11 c15 9 10 -20 -7 -44 -8 -12 -11
-22 -5 -22 6 0 8 -8 5 -17 -4 -12 -3 -14 3 -6 5 7 25 16 43 20 32 6 34 5 21
-10 -18 -22 -9 -21 34 3 53 30 76 24 27 -7 -23 -15 -39 -29 -37 -31 3 -3 10 0
17 5 7 5 22 13 32 17 19 6 19 6 3 -12 -9 -10 -14 -22 -10 -25 3 -4 -7 -8 -23
-8 -17 -1 -22 -3 -11 -6 28 -7 20 -29 -15 -41 -32 -10 -32 -10 -6 -11 42 -2
42 -18 0 -25 -20 -3 -44 -10 -52 -16 -13 -9 -13 -11 0 -21 13 -8 12 -10 -4 -7
-23 4 -32 66 -10 75 8 3 14 12 14 20 0 11 -6 7 -20 -10 -11 -14 -20 -32 -20
-41 0 -19 -26 -22 -32 -4 -3 7 1 24 9 38 12 23 11 26 -10 32 -13 3 4 6 41 7
84 1 72 16 -15 19 -37 2 -70 7 -71 12 -2 6 -7 8 -12 5 -4 -3 -3 6 3 20 7 14
16 25 20 25 5 0 5 4 2 10 -10 16 14 50 35 50 10 0 22 5 26 12 6 9 9 9 12 0 2
-7 8 -10 13 -6z m2799 -141 c7 -8 18 -15 24 -15 6 0 28 -5 49 -11 44 -12 47
-29 12 -71 -14 -16 -25 -36 -25 -45 0 -13 -3 -13 -15 -3 -8 7 -22 9 -31 6 -29
-11 -47 22 -49 90 -1 66 9 80 35 49z m-5860 -2035 c6 -11 15 -19 20 -17 5 1
16 -7 24 -18 12 -16 15 -17 16 -4 0 8 -5 20 -12 27 -8 8 -9 12 -1 12 6 0 13
-5 15 -12 2 -6 21 -11 41 -10 20 1 37 -3 37 -8 0 -6 -4 -10 -10 -10 -5 0 -10
-4 -10 -10 0 -5 8 -6 18 -3 14 6 15 4 5 -9 -7 -8 -10 -18 -6 -22 8 -8 -15 -26
-34 -26 -7 0 -13 11 -13 25 0 14 5 25 11 25 5 0 7 5 4 10 -14 23 -27 -4 -21
-44 19 -125 18 -127 -27 -119 -24 5 -27 10 -27 44 0 21 -4 40 -9 43 -5 3 -7
-17 -4 -47 4 -52 4 -53 -24 -55 -23 -1 -25 0 -11 9 16 9 16 12 3 33 -16 24
-11 53 11 71 15 12 1 53 -21 61 -20 8 -21 74 0 74 8 0 19 -9 25 -20z m1247
-22 c28 -26 31 -48 3 -23 -11 10 -23 15 -27 12 -3 -4 6 -18 20 -31 15 -14 27
-30 27 -36 0 -6 5 -8 10 -5 6 4 9 14 8 23 -2 11 5 18 19 20 17 3 21 -1 17 -11
-3 -9 0 -15 8 -14 34 1 49 -4 42 -15 -5 -8 0 -9 16 -5 20 5 63 -13 80 -34 5
-6 54 -21 82 -24 30 -3 33 -15 5 -15 -15 0 -27 -5 -27 -11 0 -7 14 -8 40 -4
44 7 76 -4 44 -16 -19 -7 -19 -7 1 -15 30 -12 45 -30 45 -53 0 -12 6 -21 15
-21 13 0 13 3 3 20 -14 22 -3 51 23 58 11 3 11 2 1 -6 -8 -5 -14 -12 -15 -16
-4 -14 63 -47 85 -43 21 3 20 5 -12 20 l-35 16 30 0 c29 0 85 -38 85 -58 0 -5
11 -8 24 -7 15 2 37 -8 57 -25 17 -15 38 -25 46 -22 7 3 13 0 13 -6 0 -6 7
-11 15 -11 18 0 20 17 3 23 -7 2 -10 7 -6 11 3 4 14 3 25 -2 10 -5 34 -18 55
-28 21 -10 34 -23 31 -30 -2 -7 5 -21 18 -31 12 -10 34 -29 49 -43 66 -61 91
-80 115 -86 13 -3 22 -11 19 -16 -3 -5 -17 -7 -30 -4 -18 5 -24 2 -24 -10 0
-11 5 -14 16 -10 20 8 57 -12 48 -25 -6 -11 -54 -3 -64 9 -3 4 -17 13 -32 19
-16 7 -28 20 -28 28 0 12 6 14 28 9 l27 -7 -25 26 c-14 15 -33 27 -42 27 -21
0 -24 -16 -5 -23 10 -4 10 -7 0 -18 -10 -10 -13 -10 -13 -1 0 7 -6 12 -12 11
-36 -4 -48 2 -48 26 0 30 -25 45 -65 38 l-30 -4 43 39 c47 45 55 63 15 37 -60
-40 -86 -94 -44 -96 12 0 10 -3 -6 -11 -28 -14 -30 -28 -4 -28 11 0 23 -4 26
-10 3 -5 16 -10 28 -10 12 0 37 -9 55 -20 17 -11 32 -15 32 -9 0 5 5 7 11 3 8
-5 8 -8 0 -14 -15 -8 -3 -40 14 -40 7 0 15 6 18 13 5 16 77 -17 77 -37 0 -7
12 -16 28 -19 15 -3 36 -13 47 -21 20 -16 20 -16 1 -31 -19 -14 -19 -15 -1
-35 10 -11 31 -20 49 -20 l31 -1 -30 -14 c-25 -11 -27 -13 -9 -14 22 -1 39
-25 28 -42 -3 -5 -20 -10 -37 -10 -18 -1 -24 -3 -14 -6 12 -3 17 -15 17 -44 0
-28 4 -39 15 -39 8 0 15 -4 15 -10 0 -5 -5 -10 -10 -10 -6 0 -5 -8 2 -20 11
-17 10 -22 -2 -30 -12 -8 -12 -10 4 -10 26 0 66 -38 66 -63 0 -12 5 -17 13
-14 18 7 10 -41 -11 -65 -13 -16 -13 -18 2 -24 9 -3 16 -11 16 -16 0 -6 7 -16
15 -22 12 -9 12 -14 1 -28 -13 -18 -84 -39 -74 -22 4 5 -19 10 -50 11 l-57 2
45 -14 45 -13 -87 -1 c-50 -1 -88 -5 -88 -11 0 -5 6 -7 13 -5 6 2 28 1 47 -4
24 -6 -1 -8 -82 -7 -65 0 -118 5 -118 10 0 5 -6 4 -12 -2 -7 -5 -28 -13 -45
-17 -18 -3 -31 -10 -30 -14 3 -11 -60 -71 -75 -71 -7 0 -37 -9 -66 -19 -62
-23 -102 -28 -121 -17 -7 5 -16 4 -20 -1 -3 -6 -13 -13 -21 -17 -8 -3 -2 -4
13 -1 19 4 26 2 22 -5 -3 -5 -23 -10 -44 -10 -23 0 -48 -8 -64 -20 -14 -11
-30 -20 -36 -20 -6 0 -11 -4 -11 -10 0 -10 -88 -54 -106 -53 -6 0 -9 -8 -7
-18 3 -11 0 -19 -6 -19 -6 0 -11 7 -11 15 0 12 -3 12 -18 -2 -14 -14 -16 -21
-8 -32 8 -11 8 -15 -1 -18 -7 -3 -13 -12 -13 -21 0 -9 -8 -2 -17 16 -18 37
-35 31 -35 -13 0 -14 -3 -23 -6 -21 -10 10 -31 -15 -25 -30 3 -9 -2 -14 -17
-14 -19 0 -20 -3 -10 -15 6 -8 8 -20 4 -26 -5 -9 -11 -7 -21 6 -12 18 -13 18
-13 -3 0 -26 -15 -29 -29 -5 -5 10 -13 15 -16 11 -8 -8 16 -78 27 -78 15 0 8
-19 -9 -23 -14 -4 -13 -5 4 -6 12 0 25 -5 28 -11 10 -16 -28 -12 -54 6 -18 13
-20 18 -10 25 10 6 10 9 2 9 -21 0 -25 -21 -7 -41 17 -19 16 -19 -27 -20 l-44
0 50 -17 c28 -9 52 -19 55 -23 3 -4 14 -9 25 -11 16 -4 13 -7 -15 -15 l-35
-11 35 -1 c33 -2 34 -2 16 -16 -16 -12 -17 -15 -4 -15 9 0 19 -7 22 -16 4 -10
2 -13 -7 -9 -6 4 -5 0 4 -7 9 -7 20 -29 24 -48 9 -44 27 -78 55 -108 16 -16
25 -43 30 -89 5 -36 13 -70 18 -75 12 -12 6 -64 -14 -126 -8 -23 -14 -74 -14
-112 0 -38 -4 -72 -10 -75 -14 -9 -12 -45 3 -46 10 0 10 -2 0 -6 -18 -7 -16
-23 2 -23 8 0 15 -4 15 -10 0 -5 -8 -6 -17 -3 -13 5 -15 3 -8 -13 7 -17 8 -32
4 -66 -1 -7 0 -20 2 -28 2 -8 -3 -14 -11 -15 -16 0 -28 -45 -12 -45 6 0 12
-29 14 -64 2 -42 -1 -62 -8 -59 -10 3 -43 -26 -42 -37 2 -13 -14 -50 -23 -50
-16 0 -9 -25 11 -38 25 -15 26 -37 2 -54 -15 -11 -18 -29 -20 -97 -1 -67 -5
-86 -19 -96 -17 -13 -17 -15 6 -46 13 -17 19 -29 12 -25 -13 8 -13 5 -16 -86
-1 -38 1 -68 6 -68 4 0 9 4 11 9 2 5 9 3 16 -5 11 -12 8 -14 -20 -15 -43 -1
-76 -13 -60 -23 19 -11 14 -25 -11 -37 -24 -11 -44 -56 -67 -154 -17 -73 -28
-90 -66 -108 -22 -11 -34 -24 -34 -37 0 -27 -4 -26 -62 16 -43 32 -52 35 -73
26 -14 -6 -27 -7 -30 -2 -3 4 1 11 7 13 8 3 6 6 -4 6 -19 1 -24 16 -8 26 5 3
7 12 4 19 -3 8 -1 17 5 21 7 3 11 42 11 93 0 82 27 229 49 271 12 22 68 230
92 344 20 92 15 134 -10 103 -17 -20 -23 -20 -50 3 -17 15 -19 20 -8 30 17 13
28 5 20 -16 -4 -11 0 -14 13 -11 25 4 26 50 2 100 -10 21 -21 58 -24 82 -6 44
-6 45 32 63 22 10 39 25 39 33 0 8 10 16 22 18 32 5 42 23 49 91 7 61 7 61
-19 61 -14 0 -29 -4 -32 -10 -3 -5 -11 -10 -17 -10 -6 0 -1 11 12 25 13 14 32
25 42 25 13 0 18 7 18 25 0 16 6 25 15 25 34 0 8 155 -39 228 -28 44 -46 60
-46 40 0 -13 -45 48 -50 67 -5 22 -42 65 -55 65 -9 0 -12 6 -8 16 5 14 0 16
-42 11 -26 -4 -45 -3 -41 0 8 9 -54 53 -76 53 -10 0 -18 4 -18 10 0 6 9 6 25
0 15 -6 26 -6 30 0 6 9 -9 14 -70 24 -16 2 -39 7 -50 11 -13 4 -28 -1 -42 -14
-12 -12 -31 -21 -43 -21 -26 0 -26 -17 0 -25 21 -7 18 -26 -3 -21 -7 1 -9 1
-4 -1 13 -8 7 -21 -12 -26 -17 -4 -19 1 -19 32 0 20 -3 50 -7 66 -4 17 -8 49
-9 72 -3 56 -21 76 -36 39 -8 -22 -14 -26 -31 -21 -15 5 -22 2 -26 -14 -6 -24
-23 -29 -23 -7 0 8 10 22 22 30 21 15 21 16 3 36 -23 26 -28 90 -8 90 8 0 12
-4 8 -9 -3 -5 -1 -12 4 -15 5 -3 12 6 15 20 5 20 12 25 26 21 23 -6 25 10 9
63 -5 19 -12 89 -15 155 -2 66 -11 149 -18 185 -17 77 -20 483 -5 513 16 29
20 97 6 97 -9 0 -9 2 0 8 18 12 28 62 12 62 -10 1 -8 5 5 15 10 7 16 18 13 23
-4 4 1 21 8 36 8 15 16 42 17 59 1 18 8 38 15 45 7 7 13 22 13 32 0 20 49 54
93 65 15 4 27 10 27 14 0 3 3 16 6 29 5 16 2 22 -9 22 -10 0 -13 6 -10 20 6
21 32 27 49 11 5 -5 18 -12 29 -15 11 -3 1 -3 -23 0 -28 3 -41 1 -37 -6 9 -15
62 -12 95 5 29 15 38 29 23 38 -5 2 -2 2 6 0 7 -2 20 2 27 8 8 6 20 9 29 6 8
-4 17 -2 20 3 4 6 -4 10 -16 10 -21 0 -21 0 4 24 18 17 22 26 14 30 -9 5 -9 7
1 12 6 3 10 10 6 15 -3 5 1 9 10 9 8 0 16 4 18 9 2 5 21 18 43 30 22 11 33 21
25 21 -9 0 -3 10 15 25 17 13 42 24 57 25 25 0 27 3 22 30 -5 23 -3 30 9 30
10 0 13 -6 10 -19 -3 -10 1 -22 7 -26 8 -5 11 -1 8 12 -3 22 52 102 71 103 8
0 25 -10 38 -22z m1363 11 c0 -5 4 -8 10 -4 5 3 12 -16 16 -43 7 -53 19 -81
29 -70 4 4 3 13 -1 20 -13 20 -15 50 -4 43 5 -3 10 -12 10 -18 0 -7 13 -37 30
-67 16 -30 29 -64 30 -75 0 -11 5 -27 11 -35 8 -12 9 -9 5 10 -5 21 -4 21 9
-5 8 -16 14 -38 15 -47 0 -36 -18 -16 -49 50 l-31 67 6 -45 c3 -25 14 -64 25
-87 10 -24 19 -51 19 -60 0 -15 2 -16 10 -3 7 11 10 4 10 -27 0 -24 4 -43 8
-43 12 0 32 -93 31 -138 l-1 -37 -8 32 c-4 18 -12 39 -18 46 -11 12 -31 87
-37 136 -2 13 -7 27 -12 30 -7 5 -31 64 -71 179 -8 23 -18 42 -23 42 -5 0 -9
6 -9 14 0 7 -9 25 -20 39 -11 14 -19 33 -19 44 1 16 2 16 6 1 2 -10 9 -18 15
-18 5 0 7 7 4 16 -15 39 -18 64 -7 64 6 0 11 -5 11 -11z m314 -117 c0 -16 -4
-34 -8 -41 -5 -7 -5 -15 -2 -18 3 -4 6 -1 6 5 0 7 4 12 8 12 8 0 17 -33 44
-145 9 -40 18 -59 27 -57 9 2 11 -3 7 -15 -4 -9 -4 -14 0 -10 10 9 44 -22 44
-40 0 -8 4 -12 9 -8 5 3 12 1 16 -5 3 -5 -2 -10 -11 -10 -17 0 -16 -1 1 -13
10 -8 19 -27 21 -42 2 -18 17 -42 41 -63 33 -30 35 -33 13 -27 -44 13 -81 36
-87 53 -4 9 -18 33 -33 52 -15 19 -31 49 -35 65 -10 37 -9 35 -23 68 -7 16
-12 35 -12 43 0 8 -5 14 -11 14 -6 0 -8 -9 -3 -22 15 -50 16 -53 4 -36 -6 9
-17 15 -24 12 -8 -3 -16 4 -19 16 -4 17 -3 19 8 10 10 -9 15 -4 20 19 3 17 2
38 -4 48 -9 15 -10 14 -5 -8 9 -43 -12 -42 -25 1 -13 43 -5 123 12 113 6 -4 8
3 3 20 -4 16 -1 27 7 30 6 3 12 6 12 6 0 1 0 -12 -1 -27z m96 -415 c0 -8 11
-24 24 -36 13 -13 27 -35 31 -49 4 -15 12 -30 18 -34 6 -3 11 -32 11 -62 1
-60 7 -69 23 -33 9 18 11 9 9 -45 0 -36 -4 -64 -8 -61 -5 2 -8 -15 -8 -39 -1
-34 -3 -39 -11 -25 -5 9 -16 17 -23 17 -8 0 -16 6 -18 13 -8 22 4 167 13 161
17 -10 9 31 -17 83 -15 28 -32 49 -38 47 -6 -2 -11 6 -12 18 0 13 -4 31 -8 41
-5 10 -4 17 3 17 6 0 11 -6 11 -13z m342 -967 c3 -17 1 -33 -4 -36 -4 -3 -8
-10 -8 -15 0 -6 5 -7 12 -3 8 5 9 2 5 -9 -3 -9 -2 -19 3 -22 6 -4 10 13 10 40
0 25 4 44 9 41 5 -3 7 -14 5 -24 -3 -9 2 -53 10 -97 8 -44 15 -70 15 -57 1 12
6 22 12 22 7 0 9 -17 5 -51 -4 -28 -3 -48 2 -45 5 3 6 -9 4 -26 -3 -21 -1 -29
7 -24 7 5 11 -2 11 -18 0 -14 -5 -26 -11 -26 -7 0 -9 -11 -6 -27 2 -16 1 -37
-3 -48 -5 -13 -2 -24 9 -33 13 -11 13 -14 2 -19 -10 -4 -10 -7 -1 -13 9 -5 9
-13 2 -25 -9 -17 -10 -17 -20 1 -5 10 -13 38 -17 61 -7 46 -25 68 -25 33 0
-20 -1 -20 -16 -5 -12 11 -15 26 -11 51 4 20 2 34 -5 34 -6 0 -8 10 -4 24 3
14 2 28 -4 31 -5 3 -10 24 -10 47 0 37 -2 39 -17 27 -15 -12 -16 -12 -10 4 4
10 7 28 7 39 0 14 5 18 15 15 8 -4 17 -2 20 3 4 6 -1 10 -9 10 -9 0 -16 6 -16
14 0 8 -8 17 -17 20 -10 4 -40 26 -66 51 -38 35 -46 48 -39 61 8 14 10 13 15
-8 7 -27 81 -91 109 -93 10 -1 18 0 18 1 0 2 -19 22 -42 46 -24 23 -36 36 -26
30 13 -10 17 -10 21 0 4 10 7 11 18 1 22 -21 31 -15 24 17 -4 17 -2 30 3 30 5
0 12 -14 14 -30z m-867 -330 c22 -11 47 -19 55 -19 10 0 8 3 -5 9 -16 7 -17 9
-3 9 9 1 19 -3 23 -9 3 -5 12 -7 20 -3 8 3 15 0 15 -6 0 -6 -4 -11 -8 -11 -4
0 -8 -9 -8 -19 0 -15 3 -17 13 -9 10 8 13 6 13 -10 0 -22 -32 -35 -66 -26 -17
4 -25 -2 -38 -30 -18 -38 -25 -43 -42 -26 -12 12 -44 3 -44 -11 0 -4 7 -6 15
-3 8 4 15 2 15 -4 0 -5 -11 -12 -24 -14 -20 -4 -24 -1 -20 16 2 12 6 36 9 55
l4 33 -36 -7 c-43 -8 -73 -25 -73 -42 0 -7 -7 -10 -15 -7 -8 4 -22 1 -30 -6
-9 -7 -18 -10 -22 -6 -4 3 4 14 17 23 13 9 32 25 41 34 10 10 26 16 36 13 26
-5 86 28 89 49 4 28 12 47 21 47 4 -1 26 -9 48 -20z m44 -241 c12 -20 21 -27
26 -19 6 9 10 9 19 0 8 -9 8 -14 -1 -17 -18 -6 -16 -21 2 -25 13 -2 12 -6 -5
-16 -18 -11 -20 -10 -20 14 0 14 -4 23 -9 19 -6 -3 -14 3 -20 12 -6 10 -11 13
-11 6 0 -6 7 -18 15 -27 16 -16 21 -41 6 -32 -5 3 -14 -1 -21 -9 -15 -18 -27
-19 -33 -2 -2 6 -3 5 -2 -4 2 -12 -8 -18 -34 -23 -20 -3 -45 -12 -56 -21 -19
-14 -18 -15 8 -5 16 5 43 10 62 10 19 0 36 4 40 9 4 8 101 41 119 41 3 0 6 -9
6 -20 0 -11 -5 -19 -12 -17 -7 1 -14 -11 -17 -27 -3 -16 -13 -30 -21 -32 -29
-5 -110 -50 -103 -57 3 -4 2 -7 -3 -7 -6 0 -15 5 -22 12 -9 10 -16 8 -30 -6
-16 -17 -15 -18 29 -14 32 2 45 -1 42 -8 -4 -12 -57 -24 -109 -24 -22 0 -34
-6 -42 -22 -6 -13 -11 -17 -11 -10 -1 18 -41 15 -41 -4 0 -8 -4 -12 -10 -9 -5
3 -10 1 -10 -4 0 -13 25 -14 67 -2 19 6 35 6 38 1 3 -5 16 -4 30 2 20 9 22 14
13 25 -10 12 -4 14 38 11 34 -2 48 -7 46 -16 -2 -10 2 -10 17 -2 11 5 33 10
49 10 16 0 37 9 47 20 16 18 20 19 28 5 4 -8 13 -13 18 -10 5 4 7 10 4 15 -9
14 20 28 55 26 19 -2 42 3 50 10 22 19 67 27 75 15 3 -6 -4 -15 -16 -20 -22
-8 -22 -8 5 -15 15 -4 33 -3 39 2 7 6 31 13 55 17 26 4 42 12 42 21 0 8 -5 14
-11 14 -5 0 -7 5 -4 10 4 6 13 7 24 1 11 -6 33 -6 57 -1 69 16 84 13 84 -17 0
-14 -7 -35 -17 -45 -18 -20 -4 -25 16 -5 14 14 83 16 92 3 9 -12 59 1 59 15 0
6 -7 9 -15 5 -8 -3 -15 -1 -15 4 0 6 5 10 11 10 5 0 8 3 6 8 -3 4 -1 15 2 26
6 14 10 10 21 -23 9 -28 19 -41 32 -41 23 0 24 -17 1 -23 -14 -4 -12 -5 5 -6
21 -1 33 -21 11 -21 -5 0 -7 -5 -4 -10 4 -6 10 -8 14 -5 5 2 -2 -37 -15 -87
-13 -51 -22 -94 -19 -96 2 -2 11 9 20 25 15 27 16 27 11 3 -3 -14 -6 -36 -6
-50 -1 -24 -1 -24 -15 -6 -8 11 -15 16 -15 12 0 -5 -7 -3 -15 4 -9 8 -15 8
-15 2 0 -6 5 -12 11 -14 12 -4 23 -87 21 -158 -1 -32 1 -41 8 -30 8 12 10 9
10 -12 0 -15 5 -30 10 -33 21 -13 9 -25 -12 -14 -13 7 -33 14 -45 15 -12 1
-33 10 -47 19 -14 10 -26 13 -26 7 0 -13 45 -49 71 -57 25 -8 24 -27 -1 -50
-12 -10 -18 -25 -16 -32 3 -7 1 -15 -4 -18 -5 -3 -9 -18 -9 -33 -1 -51 -13
-117 -25 -125 -6 -4 2 -5 18 -1 l29 7 -21 -21 c-11 -11 -28 -19 -38 -19 -10 1
-20 -6 -22 -16 -4 -22 18 -53 28 -38 3 6 17 12 30 13 22 3 25 -1 23 -30 -2
-42 -3 -43 -58 -49 -25 -3 -45 -9 -45 -14 0 -5 15 -7 33 -4 17 2 48 1 67 -4
l35 -9 -31 -1 c-37 -1 -47 -10 -33 -28 9 -10 8 -13 -5 -13 -9 0 -16 6 -16 13
0 9 -2 9 -9 -1 -4 -7 -5 -33 -1 -57 4 -29 3 -46 -4 -50 -6 -2 -1 -2 12 1 20 5
22 2 22 -35 0 -23 -4 -41 -10 -41 -5 0 -10 -6 -10 -14 0 -9 -9 -14 -21 -13
-14 1 -19 7 -16 19 4 13 -1 18 -16 18 -15 0 -18 -3 -9 -8 7 -5 15 -26 19 -48
3 -21 10 -47 15 -57 12 -23 1 -57 -18 -57 -8 0 -14 -7 -14 -15 0 -9 -7 -18
-15 -21 -8 -4 -15 -10 -15 -15 0 -5 -11 -26 -25 -47 -28 -42 -82 -72 -95 -52
-5 8 -15 9 -31 4 -35 -12 -83 -11 -91 1 -4 5 -8 1 -8 -11 0 -11 3 -24 8 -28 7
-8 8 -12 11 -43 1 -12 6 -8 15 13 8 18 19 35 25 38 17 11 13 -40 -4 -58 -17
-17 -20 -46 -4 -46 6 0 13 9 16 20 3 11 11 20 18 20 8 0 11 -8 8 -20 -4 -16
-2 -19 13 -14 15 5 14 3 -3 -10 -13 -10 -23 -27 -24 -39 l0 -22 -11 23 c-18
36 -26 26 -21 -25 5 -45 4 -47 -10 -28 -15 19 -16 17 -23 -32 -3 -29 -10 -50
-15 -47 -5 3 -9 -2 -9 -10 0 -28 -17 -17 -28 17 -8 25 -10 27 -11 10 -1 -14
-14 -31 -36 -45 l-34 -23 32 -12 32 -11 -32 -1 c-17 -1 -35 -5 -38 -11 -3 -5
-2 -10 2 -10 14 0 14 -50 0 -51 -6 -1 -19 -2 -27 -3 -19 -1 -42 -48 -30 -60
26 -26 6 -33 -25 -10 -17 13 -18 16 -5 24 12 8 11 10 -6 10 -12 0 -24 -7 -28
-15 -8 -22 -154 -22 -162 0 -9 23 -24 7 -24 -25 0 -17 7 -33 18 -39 15 -9 13
-10 -10 -11 -21 0 -25 -4 -21 -20 3 -12 0 -20 -6 -20 -7 0 -11 -6 -10 -12 4
-35 -1 -42 -17 -20 -25 36 -44 28 -44 -20 -1 -37 -2 -41 -14 -26 -11 15 -16
15 -38 4 -20 -11 -28 -11 -43 0 -12 9 -22 10 -30 4 -7 -6 -23 -10 -36 -9 -13
1 -43 -1 -66 -4 -33 -4 -43 -2 -43 9 0 8 -4 14 -10 14 -5 0 -10 -4 -10 -10 0
-15 -21 -12 -42 7 -10 9 -18 11 -18 6 0 -10 -19 -34 -88 -108 -16 -16 -36 -43
-46 -58 -12 -20 -22 -27 -34 -22 -9 4 -40 9 -69 11 -45 3 -53 1 -58 -16 -4
-11 -10 -20 -15 -20 -12 0 -4 -54 9 -58 14 -5 15 -32 1 -32 -6 0 -18 17 -28
38 -9 20 -19 39 -22 42 -8 8 -28 53 -35 80 -11 40 -67 150 -76 150 -5 0 -9 9
-9 19 0 11 -4 21 -8 23 -5 2 -24 32 -43 68 -18 36 -36 67 -40 70 -3 3 -9 17
-13 33 -3 15 -11 27 -16 27 -6 0 -10 9 -10 19 0 11 -4 22 -9 25 -5 3 -14 19
-19 35 l-10 29 87 11 c90 11 124 7 183 -25 14 -8 46 -17 70 -20 40 -5 44 -4
60 23 21 36 70 52 151 51 40 0 63 4 76 16 9 9 21 14 24 11 4 -3 5 -2 3 1 -6 8
35 47 42 39 3 -3 11 11 17 32 8 28 18 40 40 48 33 11 56 35 48 49 -4 5 -1 6 5
2 5 -3 12 0 15 6 2 7 16 13 32 13 21 0 32 7 44 32 9 17 28 39 43 49 15 10 35
39 44 64 9 25 20 49 24 53 8 9 -4 56 -27 100 -8 15 -12 34 -9 42 3 8 0 14 -7
12 -7 -1 -11 8 -10 23 1 14 -1 19 -3 13 -8 -19 -24 -16 -17 2 3 10 0 15 -8 13
-8 -2 -15 7 -17 22 -2 13 -13 32 -23 41 -10 9 -19 25 -19 35 0 14 -2 16 -9 6
-6 -11 -10 -10 -15 4 -4 10 -1 21 6 26 10 6 10 8 1 8 -7 0 -13 7 -13 15 0 8
-5 15 -11 15 -6 0 -18 7 -27 16 -10 11 -17 13 -20 5 -2 -6 -8 -11 -13 -11 -14
0 -11 28 4 33 6 3 3 6 -8 6 -16 1 -17 3 -5 11 11 7 9 11 -13 19 -25 10 -33 29
-28 69 1 6 -2 12 -6 12 -10 0 -29 45 -37 88 -5 30 -4 32 24 32 17 0 30 -4 30
-10 0 -5 4 -10 9 -10 23 0 -2 35 -26 37 -29 1 -45 20 -37 45 3 10 -2 18 -13
21 -14 4 -13 5 5 6 27 1 30 21 2 21 -23 0 -27 15 -5 24 8 3 15 9 14 13 -1 4
-1 29 0 56 1 43 3 47 26 47 14 0 25 5 25 10 0 6 -5 10 -11 10 -6 0 -8 8 -4 19
3 11 -1 26 -11 36 -15 14 -15 18 -3 26 20 13 29 11 29 -6 0 -8 7 -15 16 -15 8
0 13 -4 10 -9 -3 -4 6 -6 20 -3 16 3 30 -1 36 -9 6 -10 7 -1 3 26 -3 22 -14
46 -23 53 -12 9 -12 12 -2 12 9 0 7 7 -8 20 -12 11 -24 20 -27 20 -3 0 -24 18
-46 40 -23 22 -44 38 -49 35 -12 -7 -21 23 -15 53 3 15 2 21 -1 15 -11 -24
-24 -13 -18 13 7 28 84 117 84 97 0 -18 42 -11 48 9 2 10 10 14 20 11 10 -4
13 -2 8 5 -11 17 -34 15 -45 -5 -5 -10 -13 -15 -17 -11 -4 4 5 20 19 34 15 15
27 33 27 40 0 17 48 54 70 54 9 0 22 11 29 24 15 28 57 50 66 36 4 -6 1 -10
-6 -10 -7 0 -10 -2 -7 -5 12 -12 38 9 38 30 0 13 5 27 12 31 8 5 9 2 5 -9 -3
-10 -2 -17 3 -17 6 0 10 5 10 10 0 6 7 10 15 10 9 0 15 9 15 23 0 13 3 17 8
11 10 -16 62 -15 56 0 -3 8 6 11 26 10 20 -1 30 3 30 12 0 24 19 15 39 -17z
m-2673 -116 c4 -10 6 -21 6 -25 -1 -5 3 -8 8 -8 6 0 10 10 10 21 0 19 2 20 16
8 15 -12 13 -16 -12 -37 -19 -17 -24 -26 -15 -31 6 -4 9 -15 5 -24 -3 -10 -1
-17 5 -17 8 0 9 -6 2 -19 -6 -10 -8 -21 -4 -24 3 -3 2 -22 -1 -43 -7 -32 -9
-34 -20 -19 -9 12 -15 14 -20 7 -4 -8 -16 -7 -40 3 -18 8 -36 12 -39 8 -4 -3
-13 -3 -22 1 -15 5 -15 8 -1 21 8 8 26 19 41 25 20 8 25 15 21 30 -3 11 -9 30
-12 42 -5 16 -3 20 10 15 12 -5 18 4 27 38 12 48 22 56 35 28z m874 -1070 c11
-10 20 -23 20 -30 0 -7 5 -13 10 -13 6 0 10 7 10 15 0 23 39 40 55 23 24 -24
22 -53 -3 -56 -16 -3 -21 -8 -18 -20 8 -26 -10 -46 -44 -48 -22 -1 -30 3 -30
15 0 10 -9 17 -22 18 -43 4 -68 13 -68 27 0 8 -6 16 -12 19 -10 3 -10 8 1 21
13 15 12 16 -12 7 -25 -10 -26 -9 -15 9 21 33 96 40 128 13z m-347 -271 c25
-3 21 -44 -8 -76 -13 -14 -20 -26 -15 -26 15 0 12 -26 -5 -40 -8 -7 -12 -16
-9 -21 3 -5 -9 -9 -26 -9 -19 0 -29 -4 -25 -10 4 -6 0 -22 -9 -35 -20 -30 -20
-35 -1 -35 8 0 15 -4 15 -10 0 -5 -4 -10 -10 -10 -5 0 -14 -9 -20 -20 -9 -17
-8 -20 10 -20 12 0 18 5 15 10 -3 6 -2 10 4 10 5 0 12 -4 15 -9 6 -9 -28 -26
-76 -37 -15 -3 -25 -11 -22 -18 3 -7 -4 -21 -16 -31 -22 -20 -27 -51 -7 -58 8
-4 6 -11 -9 -24 -23 -20 -26 -65 -6 -85 9 -9 12 -9 12 0 0 7 9 12 19 12 11 0
21 5 23 10 4 14 58 -11 58 -27 0 -7 4 -13 9 -13 5 0 11 -9 14 -20 3 -10 1 -18
-3 -17 -4 1 -9 -2 -11 -8 -1 -5 5 -11 14 -13 11 -2 17 3 17 16 0 11 12 34 26
51 24 29 27 70 4 56 -10 -6 -14 6 -11 38 2 12 -5 17 -22 17 -22 0 -24 3 -21
42 4 41 24 80 24 45 0 -11 8 -17 23 -17 29 0 51 -15 43 -29 -12 -18 4 -51 24
-51 13 0 17 -5 13 -20 -4 -14 0 -20 11 -20 18 0 20 -8 7 -28 -4 -7 -21 -12
-37 -10 -20 2 -29 -1 -29 -12 0 -9 7 -14 18 -12 10 2 17 -3 17 -13 0 -8 4 -15
9 -15 10 0 27 -41 36 -87 6 -28 4 -33 -12 -33 -11 0 -29 -9 -42 -21 -24 -22
-51 -19 -51 6 0 8 -6 15 -13 15 -9 0 -12 11 -9 35 2 19 0 35 -4 35 -5 0 -10
-10 -11 -22 -3 -49 -9 -63 -28 -71 -18 -8 -18 -10 -4 -20 12 -9 14 -18 8 -35
-5 -12 -11 -22 -15 -22 -3 0 -4 7 0 15 3 10 -1 15 -14 15 -21 0 -40 -22 -23
-27 6 -2 8 -13 6 -24 -4 -15 -11 -19 -27 -15 -11 3 -25 6 -30 6 -4 0 -6 7 -2
15 3 8 1 15 -4 15 -5 0 -7 19 -4 42 3 28 1 44 -8 49 -21 14 -28 11 -28 -11 0
-22 -16 -27 -22 -8 -9 25 -30 -5 -24 -33 6 -33 -12 -40 -38 -14 -27 28 -29 55
-7 86 l22 29 -36 52 c-19 29 -35 60 -35 68 1 18 45 70 59 70 6 0 14 12 17 28
8 31 30 51 59 52 19 1 19 2 -2 10 -12 5 -24 22 -29 42 -11 49 -11 61 5 80 7
10 11 24 8 32 -4 10 1 16 16 18 16 2 22 10 21 26 0 15 5 21 15 20 10 -2 15 4
15 15 -1 12 6 17 27 17 33 0 39 16 9 25 -16 5 -18 10 -10 26 6 10 10 27 8 37
-2 12 3 16 16 14 13 -3 17 1 13 11 -3 8 -1 18 3 23 8 8 74 11 123 6z m-650
-258 l47 -16 -15 -35 c-17 -39 -19 -55 -6 -34 5 8 11 9 15 3 7 -12 -38 -37
-84 -47 -25 -5 -29 -10 -20 -20 13 -15 -4 -60 -19 -50 -16 9 -23 58 -10 65 19
12 0 30 -32 30 -27 0 -30 3 -27 28 2 20 8 27 24 26 14 0 20 4 17 13 -3 7 2 13
10 13 8 0 17 -6 20 -12 5 -13 8 -6 22 37 5 18 2 18 58 -1z m809 -327 c-2 -32
0 -37 18 -37 11 0 20 -7 20 -15 0 -8 5 -15 10 -15 6 0 10 -4 10 -10 0 -5 -7
-10 -15 -10 -8 0 -15 -4 -15 -9 0 -5 -3 -17 -7 -27 -4 -11 -3 -15 4 -11 6 4
17 0 24 -9 11 -14 8 -15 -36 -10 -56 6 -75 29 -66 80 1 4 -5 13 -14 20 -13 9
-15 29 -6 64 1 1 9 -2 19 -7 10 -5 24 -6 31 -2 10 6 9 10 -4 15 -20 7 -9 28
13 24 13 -3 16 -13 14 -41z m338 13 c0 -5 10 -12 23 -15 15 -4 30 -24 48 -63
25 -55 25 -58 7 -70 -22 -16 -23 -28 -2 -36 11 -4 14 -1 10 12 -4 11 2 21 19
29 23 10 25 9 25 -13 0 -13 -9 -29 -20 -36 -15 -9 -20 -24 -20 -53 0 -26 3
-35 9 -26 7 10 10 11 16 1 5 -8 1 -18 -11 -27 -18 -13 -17 -13 6 -11 21 3 26
-2 28 -24 2 -16 7 -28 12 -28 11 0 4 -85 -9 -108 -16 -29 -26 14 -14 60 8 30
8 38 -3 38 -9 0 -14 -11 -14 -30 0 -25 -6 -32 -37 -45 -21 -9 -40 -20 -44 -26
-3 -6 -9 3 -12 20 -7 36 -27 42 -28 9 0 -13 -3 -17 -6 -10 -4 10 -9 9 -24 -4
-21 -19 -25 -44 -7 -44 9 0 9 -3 0 -12 -7 -7 -12 -20 -12 -30 0 -10 -4 -18
-10 -18 -18 0 -11 -25 11 -38 l21 -13 -23 -20 c-13 -11 -29 -17 -37 -14 -7 3
-23 5 -34 5 -14 0 -18 5 -15 15 8 19 -10 30 -27 16 -7 -6 -39 -12 -72 -13 -52
-2 -64 1 -104 28 -25 17 -56 35 -70 39 -14 4 -46 18 -71 31 -61 30 -70 60 -29
94 22 19 29 32 26 53 -1 15 -6 30 -9 34 -4 3 -7 11 -7 17 0 6 5 5 12 -2 7 -7
22 -12 34 -12 27 0 43 20 17 20 -17 1 -17 1 0 14 9 7 17 18 17 24 0 17 13 20
40 9 14 -5 34 -10 45 -11 11 -1 19 -7 17 -15 -1 -7 2 -19 8 -25 11 -14 4 -26
-16 -26 -8 0 -11 6 -8 15 4 9 0 15 -10 15 -9 0 -16 -8 -16 -17 0 -10 -14 -27
-30 -38 -31 -21 -39 -35 -19 -35 6 0 8 -7 5 -16 -9 -23 15 -44 35 -31 12 8 24
5 47 -12 24 -16 33 -19 39 -9 14 23 60 41 87 34 15 -4 26 -2 26 4 0 5 -10 10
-21 10 -18 0 -20 2 -8 16 10 13 10 17 -2 24 -12 8 -10 13 9 32 18 18 22 19 22
6 0 -20 18 -27 50 -18 21 6 23 8 8 15 -25 10 -22 24 7 31 22 5 25 11 23 38
l-3 31 57 1 c32 1 55 -2 53 -7 -3 -4 -1 -10 3 -13 14 -9 32 40 20 52 -6 6 -11
29 -12 51 0 27 -5 41 -14 41 -9 0 -11 7 -7 19 4 13 0 20 -16 24 -11 3 -18 10
-15 16 4 6 -2 19 -13 30 -16 16 -17 20 -5 25 9 3 12 10 9 16 -3 5 3 10 14 10
12 0 21 -4 21 -10z m3343 -7 c-27 -5 -30 -18 -7 -27 8 -3 12 -2 9 4 -4 6 12
10 39 10 26 0 46 -5 46 -11 0 -5 4 -8 9 -5 5 4 17 3 28 -1 12 -5 -2 -11 -47
-19 -43 -8 -54 -12 -32 -13 17 0 32 -5 32 -11 0 -5 -5 -10 -11 -10 -6 0 -9 -7
-5 -15 4 -12 -5 -15 -50 -15 -46 0 -55 -3 -50 -15 3 -10 -1 -15 -12 -15 -13 0
-14 -2 -4 -9 26 -16 -12 -26 -83 -20 -50 4 -58 6 -27 7 26 1 41 6 37 12 -4 6
-11 8 -16 5 -5 -4 -30 -3 -56 1 -45 7 -46 8 -24 18 18 8 25 8 29 -2 4 -14 48
-16 57 -2 3 6 -3 10 -14 10 -12 0 -21 5 -21 11 0 8 12 10 36 6 35 -6 36 -6 19
13 -10 11 -22 17 -26 14 -5 -3 -17 0 -26 5 -15 9 -14 10 11 11 24 0 27 2 16
15 -10 12 -10 16 1 19 8 2 34 11 59 19 25 8 59 14 75 14 22 0 24 -1 8 -4z
m-5191 -343 c6 0 3 -9 -7 -20 -16 -18 -16 -20 -2 -20 10 0 17 -8 17 -20 0 -11
5 -20 11 -20 8 0 8 -5 -1 -15 -10 -13 -9 -15 9 -15 18 0 19 -3 10 -24 -7 -14
-23 -26 -40 -30 -21 -4 -29 -11 -29 -26 0 -11 -7 -20 -16 -20 -8 0 -12 5 -9
10 4 6 1 17 -5 25 -9 11 -9 15 -1 15 6 0 11 5 11 11 0 7 -11 9 -30 6 -22 -5
-30 -3 -30 8 0 8 -6 15 -14 15 -11 0 -12 7 -7 28 4 15 13 27 20 27 7 0 23 13
36 29 12 16 27 26 33 22 6 -3 13 -2 17 4 3 5 -1 10 -9 10 -21 0 -20 17 2 29
13 8 18 6 20 -10 2 -10 8 -19 14 -19z m628 -225 c0 -8 7 -15 16 -15 11 0 14
-5 10 -16 -4 -11 1 -18 14 -21 11 -3 20 -9 20 -13 0 -5 9 -6 20 -3 16 4 19 2
14 -13 -4 -11 -12 -25 -18 -33 -6 -8 -11 -28 -11 -45 0 -29 -6 -34 -85 -73
-47 -23 -92 -42 -101 -43 -9 0 -28 -9 -42 -20 -30 -24 -41 -25 -33 -5 3 8 0
15 -6 15 -19 0 -57 41 -51 56 3 8 -1 14 -11 14 -19 0 -57 40 -50 52 9 15 37 9
30 -7 -3 -9 0 -15 9 -15 8 0 15 -4 15 -9 0 -16 59 -24 75 -11 8 7 21 10 28 7
9 -3 12 4 11 24 -1 16 2 29 7 29 10 0 22 -44 22 -82 0 -28 11 -37 22 -18 3 5
1 18 -5 29 -6 12 -6 22 -1 26 12 7 11 46 -2 63 -6 8 -6 12 2 12 6 0 11 7 11
16 0 12 6 15 25 10 34 -9 32 6 -5 34 -23 18 -27 26 -19 36 6 8 8 14 3 15 -19
1 33 18 59 18 18 1 27 -4 27 -14z m880 -164 c0 -5 9 -13 20 -16 12 -4 17 -11
13 -18 -4 -6 -8 -27 -10 -46 -2 -20 -11 -44 -20 -53 -9 -10 -12 -18 -7 -18 5
0 10 -16 12 -36 3 -50 7 -54 58 -54 32 0 44 4 44 15 0 23 18 18 35 -9 18 -27
12 -71 -11 -80 -8 -3 -14 -12 -14 -20 0 -17 -22 -26 -66 -26 -19 0 -34 -4 -34
-8 0 -4 16 -6 35 -4 29 3 34 1 29 -11 -8 -21 -162 -17 -175 4 -6 10 -9 10 -9
2 0 -9 -24 -11 -97 -7 -54 3 -125 7 -158 7 -36 1 -69 8 -82 18 -27 19 -20 31
13 23 27 -7 29 -2 12 25 -9 15 -6 24 15 53 15 19 27 38 27 41 0 15 45 57 61
57 9 0 22 7 29 15 7 8 18 15 25 15 16 0 65 49 74 73 11 30 181 84 181 58z
m-511 -50 c12 -12 27 -17 45 -14 17 4 34 -1 45 -11 13 -12 21 -14 26 -6 5 8
12 6 25 -5 23 -20 31 -62 16 -78 -7 -7 -26 -33 -44 -59 -43 -63 -91 -98 -136
-100 -36 -1 -46 -11 -25 -24 6 -3 14 -2 18 3 3 6 15 7 26 3 19 -7 18 -8 -5
-14 -45 -11 -399 12 -378 25 7 5 8 9 3 9 -6 0 -16 -5 -21 -10 -15 -15 -104 -1
-104 16 0 9 -11 14 -29 14 -16 0 -31 6 -34 15 -7 18 6 27 28 19 10 -4 15 -2
13 7 -2 8 6 14 17 15 35 2 40 4 28 12 -15 10 -5 23 32 43 17 8 53 27 80 42 77
41 106 50 160 51 42 1 51 5 62 26 15 30 35 38 91 39 28 1 48 -5 61 -18z m2281
-6 c17 -9 30 -22 30 -31 0 -9 -5 -12 -12 -8 -8 5 -9 2 -5 -10 4 -10 1 -19 -8
-23 -13 -5 -13 -7 2 -18 25 -18 12 -28 -20 -16 -18 7 -25 15 -21 26 4 10 0 15
-14 15 -11 0 -23 6 -25 13 -3 6 -6 -3 -6 -20 -1 -19 4 -33 11 -33 6 0 8 -3 5
-7 -4 -3 -17 2 -29 13 -12 10 -18 13 -14 7 13 -22 -5 -36 -20 -16 -12 17 -13
17 -14 1 0 -21 -11 -23 -28 -6 -18 18 -15 -12 3 -36 26 -34 16 -39 -11 -7 -30
36 -44 39 -44 10 0 -17 -3 -19 -14 -10 -8 6 -20 10 -27 9 -10 -2 -13 7 -11 37
2 22 8 42 13 43 5 2 16 10 24 19 13 12 15 12 15 0 0 -9 10 -15 28 -15 35 0 62
15 62 34 0 11 6 14 16 10 9 -3 27 3 41 14 31 24 36 24 73 5z m-577 -16 c9 1
17 -2 17 -7 0 -11 32 -22 68 -26 13 -1 26 -6 30 -12 4 -6 16 -16 27 -22 11 -6
14 -12 8 -12 -18 0 -16 -20 2 -20 8 0 15 -4 15 -10 0 -24 -32 -7 -57 31 -26
39 -27 40 -35 18 -9 -24 -76 -89 -92 -89 -5 0 -17 -7 -27 -15 -15 -14 -18 -14
-33 1 -10 9 -15 23 -12 31 3 8 2 12 -3 9 -5 -3 -7 18 -6 48 4 67 28 101 59 83
12 -6 29 -10 39 -8z m-910 -109 c38 -35 47 -37 47 -10 0 11 5 20 11 20 6 0 8
-9 4 -20 -9 -27 3 -25 16 3 8 18 9 16 5 -15 -3 -21 0 -40 5 -43 5 -4 9 -19 9
-35 0 -22 4 -28 15 -24 12 5 15 -3 17 -32 l1 -39 4 38 c5 42 23 46 34 6 6 -23
6 -23 11 6 3 24 6 27 12 13 5 -10 5 -26 0 -35 -4 -10 -6 -52 -5 -93 3 -79 -5
-96 -10 -20 -3 54 -8 67 -20 49 -7 -11 -9 -9 -9 5 0 11 -3 16 -7 13 -3 -4 -12
-2 -20 4 -9 8 -13 8 -13 1 0 -6 8 -16 18 -21 10 -7 12 -11 4 -11 -9 0 -11 -8
-7 -22 3 -13 -4 -6 -15 15 -18 33 -25 37 -58 37 -33 -1 -35 -2 -19 -14 16 -12
15 -13 -13 -11 -42 3 -63 24 -32 31 12 4 19 10 17 15 -10 16 7 60 21 55 7 -3
16 -1 19 5 4 5 11 7 16 4 12 -8 12 11 -1 34 -13 24 -66 23 -64 -1 1 -13 -6
-18 -27 -18 -19 0 -29 5 -29 15 0 8 -4 15 -9 15 -5 0 -5 15 -1 36 7 29 6 34
-7 30 -10 -4 -13 0 -11 12 2 11 11 16 26 14 12 -2 22 2 22 7 0 17 9 13 43 -19z
m1377 -111 c-54 -9 -10 -23 48 -15 32 4 42 3 32 -4 -8 -5 -21 -10 -28 -10 -7
0 -28 -11 -45 -24 -40 -30 -129 -64 -182 -68 -38 -3 -40 -2 -72 56 -38 67 -37
87 1 29 24 -36 28 -38 71 -35 31 3 45 8 45 19 0 8 5 11 11 7 8 -4 9 0 4 15 -5
17 -2 21 15 21 17 0 21 -5 17 -20 -7 -29 0 -25 18 9 10 20 24 31 42 33 43 5
63 -6 23 -13z m715 -54 c0 -70 29 -119 50 -86 3 6 19 4 39 -4 18 -8 37 -11 41
-7 4 4 4 -12 0 -36 -7 -42 7 -78 25 -67 4 3 10 -2 13 -10 5 -10 -5 -16 -38
-20 l-43 -7 5 -49 5 -50 -29 6 c-18 4 -23 3 -15 -2 19 -14 19 -98 0 -120 -11
-12 -15 -29 -12 -54 4 -26 -2 -49 -20 -84 -14 -26 -26 -60 -26 -75 0 -32 -86
-134 -106 -126 -8 3 -18 -2 -23 -11 -5 -9 -28 -24 -52 -33 -25 -10 -48 -27
-54 -39 -8 -17 -16 -21 -35 -16 -45 10 -55 10 -53 -2 2 -7 -4 -10 -12 -7 -8 4
-15 12 -15 20 0 8 -4 13 -8 11 -11 -3 -82 46 -82 57 0 5 -11 23 -23 40 -13 17
-63 110 -110 206 -48 96 -91 182 -97 190 -5 8 -23 44 -40 80 -34 74 -51 102
-65 112 -5 4 -6 8 -1 8 5 0 3 7 -4 15 -19 23 7 19 33 -6 12 -11 30 -18 39 -15
13 3 18 -2 18 -17 0 -16 3 -18 9 -9 7 11 18 11 63 -1 52 -14 55 -13 82 8 16
13 47 25 70 27 34 4 145 62 166 87 14 17 71 51 94 57 15 3 32 14 39 24 9 12
27 18 66 19 30 0 59 5 65 11 19 19 41 6 41 -25z m2777 -569 c-7 -70 -6 -119 4
-183 7 -48 10 -91 8 -95 -3 -4 1 -5 9 -2 11 4 15 -13 20 -77 4 -46 12 -86 18
-90 8 -5 7 -13 -2 -30 l-14 -24 -3 25 c-1 14 -7 34 -12 45 -9 19 -39 142 -44
177 -1 10 -5 21 -9 24 -4 4 -7 17 -7 30 0 17 -4 21 -20 17 -22 -6 -25 4 -10
27 9 13 11 13 20 0 8 -12 10 -11 10 8 0 12 -6 22 -14 22 -8 0 -17 7 -20 16 -4
12 -2 15 9 10 8 -3 15 -1 15 5 0 6 4 8 9 5 8 -5 21 94 21 169 0 28 3 36 11 28
7 -7 8 -39 1 -107z m164 -88 c-3 -24 -12 -80 -20 -125 -10 -64 -10 -83 -1 -83
16 0 18 -72 3 -81 -7 -5 -11 -25 -9 -51 2 -33 0 -40 -9 -32 -7 7 -12 28 -12
47 0 19 -4 40 -9 48 -6 9 -9 -7 -9 -46 l-1 -60 -25 53 c-19 39 -23 61 -18 87
3 19 10 35 16 35 5 0 6 5 3 11 -4 5 -4 22 0 37 l7 27 11 -25 c11 -24 11 -24
15 14 2 24 6 35 11 27 5 -7 11 18 14 57 8 79 14 102 29 102 7 0 8 -16 4 -42z"/>
</g>
</svg>
